<svg xmlns="http://www.w3.org/2000/svg" viewBox="0 0 235.48 252.16"><defs><style>.cls-1,.cls-5{fill:#00a551;}.cls-1,.cls-2,.cls-3{fill-rule:evenodd;}.cls-2{fill:#a5cd39;}.cls-3,.cls-6{fill:#603813;}.cls-4{fill:#231f20;}</style></defs><g id="Layer_2" data-name="Layer 2"><g id="Layer_4" data-name="Layer 4"><path class="cls-1" d="M102.93,27.35h0c-.64-2.78.28-6.4-1.6-8.69a8.49,8.49,0,0,0-1.13-.84c3.29,2.07,2,6.31,2.7,9.52"/><path class="cls-1" d="M97.34,14.08c0,2.15-.77,4.38-.77,5.45v.07c0-1.11.77-3.33.77-5.45v-.07"/><path class="cls-1" d="M97.28,10.41c4.68,0,8.45,6,8.48,10.86,0,0,0-.06,0-.08,0-4.91-3.79-10.93-8.49-10.93-.37,0-.46.16-.44.47,0-.21.14-.32.44-.32"/><path class="cls-1" d="M96.84,10.73a26.85,26.85,0,0,1,.5,3.35V14a16.61,16.61,0,0,0-.5-3.27"/><path class="cls-1" d="M103,27.51l0-.16c-3.35-1-6.32-4.23-6.36-7.75v.09c0,3.55,3,6.84,6.39,7.82"/><path class="cls-1" d="M100.23,17.67a4.6,4.6,0,0,1,1.13,1,11.84,11.84,0,0,1,3.71,7.72,21,21,0,0,0,.7-5.05.17.17,0,0,0,0-.07,20.83,20.83,0,0,1-.69,5c-.37-3.35-1.86-6.7-4.84-8.57"/><path class="cls-2" d="M102.93,27.35c-.67-3.21.59-7.45-2.7-9.52a8.49,8.49,0,0,1,1.13.84,4.6,4.6,0,0,0-1.13-1c3,1.87,4.47,5.22,4.84,8.57a20.83,20.83,0,0,0,.69-5c0-4.89-3.8-10.86-8.48-10.86-.3,0-.42.11-.44.32a16.61,16.61,0,0,1,.5,3.27v.15c0,2.12-.73,4.34-.77,5.45,0,3.52,3,6.76,6.36,7.75"/><path class="cls-2" d="M136.11,26.64c2.41-2.28,6.85-3.3,7-7.26-.1,3.51-2.23,6.5-4.93,8.52a21.8,21.8,0,0,0,4.71-2c4.22-2.49,7.5-8.8,5.12-12.86-.52-.89-1,.68-3.19,1.95-1.88,1.1-4.23,1.59-5.17,2.14-3.06,1.8-4.37,6.06-3.51,9.47"/><path class="cls-1" d="M110.86,20.84c-.82,1.51-2.2,2.8-2.61,3.55-1.33,2.47-.47,5.88,1.51,7.82.69-2.51,3.26-5,1.73-7.74a8.91,8.91,0,0,1,.15,7.76A17.29,17.29,0,0,0,114,29c1.83-3.4,1.46-9-1.8-10.76-.72-.38-.43.88-1.36,2.62"/><path class="cls-2" d="M86,37.65c-.15.8,1,.13,2.91.47,1.68.3,3.35,1.22,4.19,1.37,2.76.49,5.73-1.39,7-3.88-2.61.13-5.8-1.53-7.9.78a8.92,8.92,0,0,1,7.32-2.57,16.72,16.72,0,0,0-3.82-1.24c-3.81-.68-9,1.43-9.66,5.07"/><path class="cls-1" d="M82.93,23.68c1,1.38,1.59,3.19,2.09,3.88,1.66,2.26,5.11,2.94,7.72,2-2-1.71-3.14-5.11-6.26-4.88a8.92,8.92,0,0,1,7.08,3.18,17,17,0,0,0-1.92-3.53c-2.29-3.12-7.51-5.18-10.49-3-.66.48.61.76,1.78,2.35"/><path class="cls-1" d="M70.06,46.47c-.12,2.89,2.47,5.65,5.46,6.56-.56-2.64.79-6.11-2.14-7.94a9,9,0,0,1,4.06,7.11,15.68,15.68,0,0,0,.78-4.07c.15-4-3-9-7.23-9.15-.92,0,0,1-.07,3-.07,1.75-.83,3.58-.86,4.45"/><path class="cls-1" d="M62.67,57.81c.89,1.52,1.24,3.46,1.68,4.22,1.47,2.49,5.13,3.42,8.14,2.57-1.9-1.91-2.63-5.57-6.08-5.53a9,9,0,0,1,7.25,3.8A15.9,15.9,0,0,0,72.12,59c-2-3.43-7.41-5.92-11-3.8-.79.47.55.85,1.58,2.59"/><path class="cls-2" d="M76.16,72.06a15.67,15.67,0,0,0-3-2.85C69.87,67,63.92,67,61.54,70.42c-.53.75.85.52,2.52,1.68,1.45,1,2.58,2.62,3.3,3.12,2.38,1.63,6.09.94,8.47-1.1-2.53-.94-4.74-4-7.85-2.45a9,9,0,0,1,8.18.39"/><path class="cls-1" d="M86.31,72.68a15.48,15.48,0,0,0,.38-4.12c-.23-4-3.89-8.65-8.08-8.41-.92.06.1,1,.22,3,.11,1.75-.47,3.64-.42,4.52.17,2.88,3,5.38,6.07,6-.82-2.58.2-6.17-2.89-7.7a9,9,0,0,1,4.72,6.68"/><path class="cls-2" d="M84,82c-1.69,3.6-.7,9.47,3.1,11.25.83.39.38-.93,1.24-2.77.75-1.59,2.16-3,2.53-3.77,1.22-2.61-.07-6.16-2.47-8.17-.51,2.65-3.12,5.32-1.13,8.15a9,9,0,0,1-1-8.13A15.78,15.78,0,0,0,84,82"/><path class="cls-1" d="M79.08,78.73a15.62,15.62,0,0,0-4.08.74c-3.76,1.3-7.27,6.09-5.91,10.06.3.87.94-.37,2.85-1,1.67-.57,3.64-.52,4.47-.81,2.73-.94,4.37-4.34,4.14-7.46-2.26,1.48-6,1.47-6.63,4.86a9,9,0,0,1,5.16-6.35"/><path class="cls-1" d="M102.75,52a16.89,16.89,0,0,0,2.56-3.1c2-3.29,2-8.9-1.16-10.85-.69-.43-.47.85-1.51,2.53-.9,1.46-2.36,2.67-2.81,3.4-1.48,2.38-.82,5.83,1,7.89.84-2.47,3.56-4.82,2.19-7.63a9,9,0,0,1-.31,7.76"/><path class="cls-2" d="M98.17,59.54c-1.58-2-1.75-5.45-5.15-5.71A8.31,8.31,0,0,1,99.58,58a13.52,13.52,0,0,0-.93-3.73c-1.46-3.39-6.39-6.19-10.28-4.52-.85.37.42.84,1.16,2.57.65,1.49.69,3.34,1,4.09,1.06,2.46,4.53,3.65,7.62,3.12"/><path class="cls-1" d="M111.44,56.51c-1.06,1-2.51,1.58-3,2.05A5.74,5.74,0,0,0,107.32,65c1.26-1.77,4-3,3.56-5.54a7.46,7.46,0,0,1-2.11,6.06,14,14,0,0,0,2.76-1.88c2.4-2.14,3.72-6.58,1.71-8.83-.44-.49-.58.57-1.8,1.66"/><path class="cls-1" d="M131.32,30.8c-.27-2.59,1.23-5.86-1.19-7.84a8.91,8.91,0,0,1,3,7.18,16.45,16.45,0,0,0,1-3.89c.48-3.84-1.89-8.92-5.57-9.38-.8-.1-.08,1-.32,2.93-.21,1.7-1,3.41-1.14,4.26-.35,2.78,1.68,5.64,4.23,6.74"/><path class="cls-2" d="M142,42.54c1.64-3.5.95-9.06-2.4-10.64-.73-.34-.37.9-1.21,2.69-.73,1.55-2,2.92-2.4,3.69-1.19,2.54-.15,5.89,1.94,7.73.55-2.56,3-5.2,1.29-7.83a8.93,8.93,0,0,1,.59,7.74A17.17,17.17,0,0,0,142,42.54"/><path class="cls-1" d="M146.45,44.22c-.54-.6-.69.69-2.16,2-1.28,1.14-3,1.89-3.65,2.46-2.09,1.87-2.44,5.36-1.24,7.87,1.5-2.14,4.78-3.62,4.25-6.7a8.93,8.93,0,0,1-2.48,7.35A16.65,16.65,0,0,0,144.5,55c2.88-2.58,4.43-8,1.95-10.74"/><path class="cls-2" d="M161,42.71c1.68-2,5.07-3.21,4.8-6.32a8.91,8.91,0,0,1-3.09,7.11,16.33,16.33,0,0,0,3.51-2C169.28,39.21,171.27,34,169,31c-.49-.65-.76.63-2.33,1.81-1.37,1-3.17,1.63-3.85,2.15-2.24,1.69-2.88,5.14-1.89,7.74"/><path class="cls-2" d="M167.23,62.07c1.93-1.76,5.44-2.51,5.59-5.63a8.94,8.94,0,0,1-4,6.65,17.45,17.45,0,0,0,3.74-1.48c3.36-1.91,6-6.84,4.21-10.07-.41-.71-.83.52-2.55,1.49-1.49.85-3.35,1.2-4.09,1.62-2.45,1.38-3.54,4.72-2.9,7.42"/><path class="cls-1" d="M173.91,66.5c.05-.81-1,0-2.94-.13-1.71-.1-3.47-.81-4.32-.86-2.81-.17-5.53,2-6.47,4.66,2.58-.44,5.94.84,7.76-1.7a8.94,8.94,0,0,1-7,3.41,17,17,0,0,0,3.94.79c3.86.23,8.78-2.47,9-6.17"/><path class="cls-1" d="M156.11,69.1a16.57,16.57,0,0,0,2.94-2.74c2.44-3,3.13-8.56.26-10.91-.63-.51-.58.79-1.83,2.32-1.08,1.33-2.69,2.34-3.23,3-1.77,2.18-1.57,5.68,0,8,1.15-2.35,4.15-4.32,3.15-7.28a8.88,8.88,0,0,1-1.3,7.64"/><path class="cls-1" d="M155.08,45.62A7.34,7.34,0,0,1,154,51.91a13.3,13.3,0,0,0,2.42-2.26c2-2.46,2.58-7,.22-9-.52-.42-.48.64-1.51,1.9-.89,1.09-2.21,1.92-2.65,2.46a5.7,5.7,0,0,0,0,6.55c.94-1.92,3.41-3.55,2.59-6"/><path class="cls-2" d="M151.32,77.3a16.37,16.37,0,0,0,2,3.51c2.33,3.09,7.58,5.07,10.53,2.83.65-.49-.63-.75-1.82-2.32-1-1.37-1.63-3.16-2.14-3.84-1.7-2.24-5.15-2.88-7.75-1.88,2,1.67,3.22,5.05,6.33,4.78a8.91,8.91,0,0,1-7.12-3.08"/><path class="cls-1" d="M155.63,23a8.91,8.91,0,0,1-5.54,5.43,16.83,16.83,0,0,0,4-.49c3.73-1,7.55-5.11,6.6-8.69-.21-.79-.94.29-2.84.8-1.66.45-3.55.32-4.38.55-2.71.72-4.6,3.68-4.65,6.45,2.3-1.22,5.89-1.07,6.82-4.05"/><path class="cls-1" d="M146.09,42.57a16.26,16.26,0,0,0,3.34-2.24c2.88-2.57,4.44-8,2-10.73-.54-.6-.7.69-2.17,2-1.28,1.14-3,1.88-3.66,2.45-2.09,1.87-2.45,5.36-1.25,7.87,1.5-2.14,4.78-3.61,4.26-6.69a8.9,8.9,0,0,1-2.5,7.34"/><path class="cls-2" d="M120.87,20.35c.62-2.27,2.94-4.53,1.56-7a8.08,8.08,0,0,1,.14,7,15.33,15.33,0,0,0,2.14-2.92c1.65-3.07,1.31-8.11-1.63-9.7-.64-.35-.38.8-1.22,2.36-.73,1.36-2,2.52-2.35,3.2a6.26,6.26,0,0,0,1.36,7.05"/><path class="cls-1" d="M139.81,9.05a8.1,8.1,0,0,1-2.89,6.37,15.12,15.12,0,0,0,3.19-1.72c2.81-2,4.68-6.75,2.72-9.45-.43-.59-.69.56-2.12,1.61-1.25.9-2.88,1.41-3.5,1.87a6.24,6.24,0,0,0-1.82,6.94c1.54-1.78,4.61-2.81,4.42-5.62"/><path class="cls-1" d="M105.9,12.51A5.67,5.67,0,0,0,111.37,16c-1.1-1.83-1.13-4.76-3.61-5.39a7.31,7.31,0,0,1,4.68,4.29,14.22,14.22,0,0,0-.58-3.24c-1-3-4.5-5.93-7.38-5-.63.21.29.75.78,2.28.44,1.33.42,2.88.64,3.54"/><path class="cls-2" d="M74.56,30.88c.91,1.06,1.48,2.5,1.94,3a5.66,5.66,0,0,0,6.4,1.15c-1.72-1.27-2.87-4-5.39-3.59a7.31,7.31,0,0,1,6,2.16,14.37,14.37,0,0,0-1.78-2.77c-2.06-2.39-6.44-3.75-8.74-1.78-.5.43.56.58,1.61,1.81"/><path class="cls-1" d="M128.59,7.52a4.68,4.68,0,0,0,4.52,2.9c-.91-1.51-.94-3.93-3-4.44A6,6,0,0,1,134,9.51a11,11,0,0,0-.48-2.67c-.81-2.48-3.71-4.9-6.09-4.12-.52.17.24.61.65,1.88.36,1.09.34,2.37.52,2.92"/><path class="cls-1" d="M86.18,15.53c1,.62,1.78,1.62,2.27,1.93a4.68,4.68,0,0,0,5.33-.64c-1.66-.58-3.22-2.43-5.12-1.53a6,6,0,0,1,5.22.27,11.62,11.62,0,0,0-2.07-1.76c-2.2-1.39-6-1.41-7.32.69-.29.46.57.33,1.69,1"/><path class="cls-1" d="M90.06,45.46a4.27,4.27,0,0,0,.44-.3c-1.24-.52-2.37-1.77-3.71-2a5.08,5.08,0,0,0-1.32.23c1.88-.6,3.14,1.18,4.59,2.06"/><path class="cls-1" d="M88.8,42.36A10.7,10.7,0,0,1,90,43.54c.25.11.49.23.73.36a12,12,0,0,0-2-1.87,7,7,0,0,0-4.46-1.18,6.92,6.92,0,0,1,4.54,1.51"/><path class="cls-1" d="M83,43.31c-.8-.68-1.51-.81-1.61-1v0c-.32.44.55.36,1.63,1.13a7,7,0,0,1,.65.55,5.88,5.88,0,0,0-.66-.66"/><path class="cls-1" d="M124.4,29.54a9.4,9.4,0,0,0,.58-2.2c.25-2.18-1.11-5.06-3.2-5.3-.46-.06,0,.55-.17,1.66s-.58,1.94-.63,2.42a3.93,3.93,0,0,0,2.43,3.81c-.17-1.47.67-3.33-.71-4.45a5.07,5.07,0,0,1,1.7,4.06"/><path class="cls-2" d="M132.61,64.14a10.79,10.79,0,0,0-.7-2.62c-1-2.4-4.12-4.56-6.42-3.59-.51.22.29.6.81,1.82.44,1.06.54,2.34.77,2.87a4.66,4.66,0,0,0,4.75,2.5c-1-1.42-1.28-3.84-3.35-4.17a6,6,0,0,1,4.14,3.19"/><path class="cls-1" d="M131.83,53.09a11,11,0,0,0,.56-2.65c.19-2.6-1.59-5.94-4.08-6.12-.54,0,0,.66-.11,2-.08,1.15-.58,2.32-.62,2.9a4.68,4.68,0,0,0,3.09,4.39c-.28-1.74.62-4-1.08-5.24a6,6,0,0,1,2.24,4.73"/><path class="cls-1" d="M112.74,77.43a11.4,11.4,0,0,0,1.49-2.27c1.11-2.36.66-6.11-1.59-7.18-.5-.24-.25.61-.82,1.81-.5,1-1.39,2-1.63,2.48a4.66,4.66,0,0,0,1.28,5.21c.38-1.72,2-3.5.9-5.27a6.06,6.06,0,0,1,.37,5.22"/><path class="cls-1" d="M86.52,54.26c-.71-2.51-3.5-5-5.91-4.38-.53.15.21.63.56,1.91.31,1.11.24,2.39.4,2.94A4.67,4.67,0,0,0,86,57.82c-.85-1.54-.77-4-2.78-4.57a6,6,0,0,1,3.7,3.7,12.26,12.26,0,0,0-.36-2.69"/><path class="cls-1" d="M84.26,40.85a3.83,3.83,0,0,0-2.81,1.2.22.22,0,0,0-.07.22,3.9,3.9,0,0,1,2.88-1.42"/><path class="cls-1" d="M85.48,43.32a2.53,2.53,0,0,1,1.31-.15,6.66,6.66,0,0,1,3.82,1.21Q90.3,44,90,43.54a5.78,5.78,0,0,0-4.47-.22"/><path class="cls-1" d="M90.33,45.62l-.27-.16a4.62,4.62,0,0,1-4.92,0c-.35-.25-.86-.91-1.49-1.51.56.63,1,1.28,1.32,1.55a4.64,4.64,0,0,0,5.36.1"/><path class="cls-1" d="M85.14,45.48a4.62,4.62,0,0,0,4.92,0c-1.45-.88-2.71-2.66-4.59-2.06a5.08,5.08,0,0,1,1.32-.23,2.53,2.53,0,0,0-1.31.15,5.78,5.78,0,0,1,4.47.22,10.7,10.7,0,0,0-1.15-1.18,6.92,6.92,0,0,0-4.54-1.51,3.9,3.9,0,0,0-2.88,1.42c.1.23.81.36,1.61,1a5.88,5.88,0,0,1,.66.66c.63.6,1.14,1.26,1.49,1.51"/><path class="cls-1" d="M94.56,84.07c-1,2.42-.31,6.14,2,7.08.5.2.21-.62.71-1.86.43-1.06,1.27-2,1.48-2.57a4.67,4.67,0,0,0-1.59-5.13c-.27,1.74-1.81,3.61-.58,5.32a6,6,0,0,1-.68-5.19,11.65,11.65,0,0,0-1.35,2.35"/><path class="cls-2" d="M149.89,61.94a11,11,0,0,0,1.56-2.21c1.19-2.32.87-6.09-1.35-7.23-.49-.25-.27.6-.88,1.78s-1.45,1.92-1.71,2.43A4.67,4.67,0,0,0,148.63,62c.43-1.71,2.13-3.43,1.06-5.24a6,6,0,0,1,.2,5.22"/><path class="cls-1" d="M138.12,78.68a11.2,11.2,0,0,0-2,1.86c-1.62,2-2.06,5.8-.11,7.36.43.34.39-.54,1.22-1.57s1.8-1.59,2.16-2a4.69,4.69,0,0,0-.06-5.38c-.76,1.59-2.77,2.94-2.08,4.93a6,6,0,0,1,.84-5.16"/><path class="cls-1" d="M165.54,54.36a11.56,11.56,0,0,0,1.87-2c1.53-2.12,1.77-5.89-.25-7.35-.44-.32-.36.55-1.14,1.63s-1.72,1.67-2.05,2.14a4.66,4.66,0,0,0,.32,5.36c.68-1.62,2.62-3.07,1.83-5a6,6,0,0,1-.58,5.2"/><path class="cls-1" d="M149.87,81.27a5.32,5.32,0,0,0-3.62-4.93c.35,2-.62,4.56,1.35,5.94a6.84,6.84,0,0,1-2.66-5.34,12.57,12.57,0,0,0-.58,3c-.15,3,1.94,6.72,4.78,6.87.63,0,0-.75.08-2.26.07-1.32.62-2.67.65-3.32"/><path class="cls-1" d="M159.23,29.1c-.89.73-2.09,1.19-2.53,1.55a4.68,4.68,0,0,0-1.06,5.27c1.07-1.4,3.32-2.31,3.05-4.39a6,6,0,0,1-1.88,4.88A12.14,12.14,0,0,0,159.12,35c2-1.66,3.21-5.25,1.62-7.18-.35-.42-.49.45-1.51,1.29"/><path class="cls-3" d="M118.89,30.85a4.26,4.26,0,1,0,4.26,4.26,4.26,4.26,0,0,0-4.26-4.26"/><path class="cls-3" d="M140.37,64.46a3.27,3.27,0,1,0,3.27-3.27,3.27,3.27,0,0,0-3.27,3.27"/><path class="cls-3" d="M94.27,72.13A3.14,3.14,0,1,0,91.13,69a3.15,3.15,0,0,0,3.14,3.14"/><path class="cls-3" d="M129.43,123.05c-7-10.61-5-23.17-4.42-26.38,3-16.78,17.24-23.77,22.37-24a23.18,23.18,0,0,1,11,2c5,2.12-3.82-4.18-11.7-4.18-17.87,0-8.58,8.29-8.58-9.51a27.36,27.36,0,0,0-5.42-16.57c1.53,3.68,3,7.66,2.72,11.67-.61,9.3-12.46,38.24-11.07,2.48.47-12.21,3.89-24,16.74-29.07C130.61,30,121.75,39.76,119,49.32c-3.73-9.56-11.43-15.86-19.36-21.69C111.07,42.13,118.4,49,118.44,69.7c0,29.42-12.63,9.2-12.63-4.54a32.81,32.81,0,0,1,3.57-14.9,22.06,22.06,0,0,0-8.15,17c.13,18.17,8.23,5.84-13.82,7.52-31,2.35,23.71-2.59,25.56,23,.1,1.47,2.92,14.59-3.13,27.77.88,0,4-2.57,7.57-3.15,6-1,8.24.52,12,.58"/><path class="cls-1" d="M117.72,4.8a7.27,7.27,0,0,1-1.81,6.07,13.69,13.69,0,0,0,2.66-1.93c2.27-2.19,3.37-6.64,1.27-8.82-.46-.48-.55.58-1.71,1.7-1,1-2.41,1.63-2.91,2.12a5.66,5.66,0,0,0-.76,6.45c1.16-1.79,3.78-3.09,3.26-5.59"/><path class="cls-3" d="M199.1,143c-18.45-14.33-46.64-23.49-78.24-23.49-30,0-57,8.28-75.44,21.41,21.32-6,46.45-9.41,73.35-9.41,29.9,0,57.6,4.26,80.33,11.49"/><path class="cls-4" d="M63.87,243.33H62.58v6h-.69v-3.74H59.53v1.1a.23.23,0,0,1-.05.24.27.27,0,0,1-.23.11c-.12,0-.36-.22-.74-.66s-.57-.73-.57-.86a.41.41,0,0,1,.14-.3.6.6,0,0,1,.35-.13h3.46v-1.72H57.77v-.5h6.1Z"/><polygon class="cls-4" points="66.6 243.33 65.31 243.33 65.31 249.29 64.63 249.29 64.63 243.33 63.61 243.33 63.61 242.82 66.6 242.82 66.6 243.33"/><path class="cls-4" d="M72.87,243.33H71.68V245H69c-.08,0-.09.15,0,.34a2.12,2.12,0,0,0,.32.61,1.49,1.49,0,0,0,.44.39.54.54,0,0,0,.41.11l.67-.2a3.2,3.2,0,0,1,.75-.16.52.52,0,0,1,.49.3,1.45,1.45,0,0,1,.17.7,2,2,0,0,1-.55,1.49,1.94,1.94,0,0,1-1.41.54,3.09,3.09,0,0,1-1.92-.78,7.14,7.14,0,0,1-1.76-2.1l.49-.47a8.43,8.43,0,0,0,1.61,2.08,2.51,2.51,0,0,0,1.58.75,1.18,1.18,0,0,0,1-.42,1.6,1.6,0,0,0,.35-1.07.55.55,0,0,0-.08-.36.44.44,0,0,0-.27-.07,2.17,2.17,0,0,0-.49.18,2,2,0,0,1-.7.17,1.64,1.64,0,0,1-1.22-.76,2.29,2.29,0,0,1-.61-1.27.42.42,0,0,1,.19-.39.86.86,0,0,1,.47-.11H71v-1.14H66.37v-.5h6.5Z"/><path class="cls-4" d="M75.63,243.33H74.34v6h-.69v-6h-1v-.5h.89a4.75,4.75,0,0,0-.91-1.64,1.55,1.55,0,0,0-1.11-.62.73.73,0,0,0-.63.32,1.27,1.27,0,0,0-.23.76,1.51,1.51,0,0,0,.11.51,2.76,2.76,0,0,0,.33.59h-.71a3.43,3.43,0,0,1-.28-.59,1.48,1.48,0,0,1-.1-.51,1.58,1.58,0,0,1,.4-1.09,1.36,1.36,0,0,1,1.09-.45,2.21,2.21,0,0,1,1.56.75,5,5,0,0,1,1.14,2h1.45Z"/><path class="cls-4" d="M80.8,242.73h-.56a3.69,3.69,0,0,0-.92-1.54A1.83,1.83,0,0,0,78,240.6a1.06,1.06,0,0,0-.83.39,1.37,1.37,0,0,0-.35.94,1.61,1.61,0,0,0,.06.39,3.62,3.62,0,0,0,.16.51h1.28v.5H77.08v6H76.4v-6h-1v-.5h1.07c-.07-.2-.12-.38-.16-.52a1.41,1.41,0,0,1-.06-.35,2,2,0,0,1,.54-1.34,1.6,1.6,0,0,1,1.22-.55,2.35,2.35,0,0,1,1.64.74,4.52,4.52,0,0,1,1.17,1.92"/><path class="cls-4" d="M84.81,243.33h-1.3v6h-.67v-2.22a3.81,3.81,0,0,1-1,.64,2.65,2.65,0,0,1-1,.23,1.6,1.6,0,0,1-1.06-.36,1.25,1.25,0,0,1-.43-1,1.51,1.51,0,0,1,.25-.82,2.29,2.29,0,0,1,.71-.71h-2v-.52H82V245h-.8a3,3,0,0,0-.92.72,1.25,1.25,0,0,0-.34.77.86.86,0,0,0,.24.67.84.84,0,0,0,.6.22,1.82,1.82,0,0,0,1.1-.4,3.7,3.7,0,0,0,.94-1.08v-2.61H78.12v-.5h6.69Z"/><path class="cls-4" d="M90,242.73h-.56a3.59,3.59,0,0,0-.92-1.54,1.83,1.83,0,0,0-1.28-.59,1.08,1.08,0,0,0-.83.39,1.36,1.36,0,0,0-.34.94,1.54,1.54,0,0,0,0,.39,3.62,3.62,0,0,0,.16.51h1.28v.5H86.26v6h-.68v-6h-1v-.5h1.07c-.07-.2-.12-.38-.16-.52a1.41,1.41,0,0,1-.06-.35,2,2,0,0,1,.54-1.34,1.6,1.6,0,0,1,1.22-.55,2.35,2.35,0,0,1,1.64.74A4.52,4.52,0,0,1,90,242.73"/><path class="cls-4" d="M94.81,243.33h-3.6v1.9a1.91,1.91,0,0,1,.6-.5,1.4,1.4,0,0,1,.67-.18,1.69,1.69,0,0,1,1.23.46,1.57,1.57,0,0,1,.48,1.18,2.24,2.24,0,0,1-.34,1.1,5,5,0,0,1-1,1.19l-.55-.4a4.46,4.46,0,0,0,.84-1,1.86,1.86,0,0,0,.31-1,1,1,0,0,0-.25-.74.86.86,0,0,0-.7-.28,1.15,1.15,0,0,0-.92.54,1.69,1.69,0,0,0-.41,1v2.7h-.67v-1.87a1.83,1.83,0,0,1-.53.37,1.52,1.52,0,0,1-.62.12,1.67,1.67,0,0,1-1.26-.51,1.69,1.69,0,0,1-.53-1.26,1.65,1.65,0,0,1,.51-1.21,1.75,1.75,0,0,1,1.25-.5,1.14,1.14,0,0,1,.28,0l.33.11v.56a1.33,1.33,0,0,0-.28-.13.7.7,0,0,0-.27,0,1,1,0,0,0-.8.33,1.18,1.18,0,0,0-.35.82,1.27,1.27,0,0,0,.3.88,1,1,0,0,0,.79.4,1,1,0,0,0,.72-.25,1.34,1.34,0,0,0,.46-.69v-3.12H87.3v-.5h7.51Z"/><path class="cls-4" d="M98.83,245.22H96.32a.77.77,0,0,0-.56.2.7.7,0,0,0-.21.52,2.75,2.75,0,0,0,.47,1.43,5.54,5.54,0,0,0,1.31,1.41l-.43.51a6.08,6.08,0,0,1-1.47-1.6,3.19,3.19,0,0,1-.52-1.68,1.33,1.33,0,0,1,.31-.87,1,1,0,0,1,.76-.38h2.85Zm0-1.89H94.56v-.5h4.27Z"/><path class="cls-4" d="M105.9,243.33h-1.29v6H104V246H102.2l-.43-.53H104v-2.18h-2.34V245s0,.21,0,.62-.25.65-.79.72l-.17,0a1,1,0,0,1-.44-.06c.15.24.29.46.43.66l.39.54.51.63c.19.23.42.47.67.74l-.52.43q-.5-.56-.93-1.14c-.3-.39-.58-.78-.84-1.16s-.52-.79-.72-1.11-.34-.6-.45-.83l.54-.35.38.74a.94.94,0,0,0,.27.29.82.82,0,0,0,.44.11c.38,0,.57-.15.56-.44s0-.46,0-.49v-1.58H98.58v-.5h7.32Z"/><polygon class="cls-4" points="108.63 243.33 107.34 243.33 107.34 249.29 106.66 249.29 106.66 243.33 105.64 243.33 105.64 242.82 108.63 242.82 108.63 243.33"/><path class="cls-4" d="M124.52,243.33h-1.29v6h-.65v-2.83l-.35,0a1.52,1.52,0,0,1-.29,0,1.48,1.48,0,0,1-.34,0,2.75,2.75,0,0,1-.4-.14,2,2,0,0,1,.12.37,1.93,1.93,0,0,1,0,.42,1.47,1.47,0,0,1-.48,1.2,1.78,1.78,0,0,1-1.17.39,2.26,2.26,0,0,1-1.48-.66,5.72,5.72,0,0,1-1.33-1.78l.53-.32a6,6,0,0,0,1.13,1.66,1.72,1.72,0,0,0,1.16.61.88.88,0,0,0,.71-.34,1.2,1.2,0,0,0,.28-.8,1.15,1.15,0,0,0-.36-.9,1.41,1.41,0,0,0-.93-.34l-.25,0-.34.08-.22-.48a2.09,2.09,0,0,1,.33-.07,2.4,2.4,0,0,1,.4-.06A1,1,0,0,0,120,245a1.1,1.1,0,0,0,.23-.71,1,1,0,0,0-.22-.68.88.88,0,0,0-.69-.26,1.38,1.38,0,0,0-.71.23,2.51,2.51,0,0,0-.7.65l-.52-.39a3,3,0,0,1,.91-.74,2.33,2.33,0,0,1,1.06-.25,1.44,1.44,0,0,1,1.06.39,1.37,1.37,0,0,1,.4,1,1.5,1.5,0,0,1-.18.74,1.39,1.39,0,0,1-.52.53l.28.07.22.09.2.12a2.39,2.39,0,0,1,.22.16l.4.09a1.48,1.48,0,0,0,.34,0,2.08,2.08,0,0,0,.39-.05l.46-.15v-2.53h-1.2v-.5h3.14Z"/><polygon class="cls-4" points="127.25 243.33 125.96 243.33 125.96 249.29 125.28 249.29 125.28 243.33 124.27 243.33 124.27 242.82 127.25 242.82 127.25 243.33"/><path class="cls-4" d="M131.15,246.45v-3.12h-2.22a2.77,2.77,0,0,1,.39.68,1.72,1.72,0,0,1,.14.64,1.42,1.42,0,0,1-.43,1,1.71,1.71,0,0,1-1.06.5,1.9,1.9,0,0,0,.61.93,1.48,1.48,0,0,0,1,.36,1.7,1.7,0,0,0,.92-.27,1.87,1.87,0,0,0,.68-.74m2-3.12h-1.29v6h-.68v-1.94a2.1,2.1,0,0,1-.73.44,2.57,2.57,0,0,1-.87.13,2.18,2.18,0,0,1-1.6-.67,2.45,2.45,0,0,1-.72-1.66l.18,0,.23,0a1.33,1.33,0,0,0,.82-.24,1,1,0,0,0,.31-.82,1.45,1.45,0,0,0-.16-.65,2.16,2.16,0,0,0-.45-.63H127v-.5h6.1Z"/><path class="cls-4" d="M132.9,250.58a1.32,1.32,0,0,1-.63,1.19,2.61,2.61,0,0,1-1.42.39,3.46,3.46,0,0,1-1.31-.3A8,8,0,0,1,128,251l.43-.55a5.92,5.92,0,0,0,1.29.88,2.54,2.54,0,0,0,1.14.31,1.79,1.79,0,0,0,1-.3.76.76,0,0,0,.39-.77A1,1,0,0,0,132,250a.67.67,0,0,0-.51-.22,1.17,1.17,0,0,0-.51.13,1.57,1.57,0,0,0-.45.38l-.49-.46a2.66,2.66,0,0,1,.73-.41,2,2,0,0,1,.76-.14,1.33,1.33,0,0,1,.94.36,1.21,1.21,0,0,1,.39.93"/><path class="cls-4" d="M138.42,243.33h-1.29v6h-.65v-1.95a1.79,1.79,0,0,1-.62.42,2,2,0,0,1-.74.14,1.93,1.93,0,0,1-1.34-.51,1.61,1.61,0,0,1-.56-1.24,1.83,1.83,0,0,1,.49-1.28,1.57,1.57,0,0,1,1.2-.54,3.18,3.18,0,0,1,.4,0l.45.09.16.64a1.14,1.14,0,0,0-.43-.2,1.78,1.78,0,0,0-.53-.08.93.93,0,0,0-.76.4,1.37,1.37,0,0,0-.3.89,1.33,1.33,0,0,0,.32.89,1.12,1.12,0,0,0,.85.37,1.54,1.54,0,0,0,.73-.2,2.45,2.45,0,0,0,.68-.58v-3.26h-3.55v-.5h5.49Z"/><polygon class="cls-4" points="137.09 242.82 136.52 242.82 134.01 240.03 134.57 239.61 137.09 242.82"/><path class="cls-4" d="M138,240.32a3.93,3.93,0,0,0-.44-.1l-.43,0a.78.78,0,0,0-.59.24.93.93,0,0,0-.22.67,2,2,0,0,0,.21.86,3.78,3.78,0,0,0,.6.87h-.59a5.52,5.52,0,0,1-.6-1.06,2.38,2.38,0,0,1-.21-.92,1.06,1.06,0,0,1,.39-.91,1.6,1.6,0,0,1,.93-.28,2.27,2.27,0,0,1,.43.05l.52.14Z"/><path class="cls-4" d="M143.78,243.33h-1.14V245h-2.58a.72.72,0,0,0-.58.28,1,1,0,0,0-.23.66,1.52,1.52,0,0,0,.69,1.27,2.39,2.39,0,0,0,1.63.45,1.14,1.14,0,0,1,.09-.86.6.6,0,0,1,.56-.38.57.57,0,0,1,.43.2.72.72,0,0,1,.18.48.93.93,0,0,1-.14.49.77.77,0,0,1-.36.31l.23.58.19.38a4.19,4.19,0,0,0,.29.47,4,4,0,0,0,.3.37h-.84c-.08-.11-.14-.22-.2-.32a2.08,2.08,0,0,1-.13-.26,2.17,2.17,0,0,1-.16-.36c-.07-.16-.15-.38-.26-.65a3.41,3.41,0,0,1-2.23-.56,1.91,1.91,0,0,1-1-1.61,1.67,1.67,0,0,1,.34-1,1,1,0,0,1,.88-.45h2.12v-1.15h-3.6v-.5h5.47Z"/><path class="cls-4" d="M155.45,246v-2.71H153v2.41a1.07,1.07,0,0,0,.37.83,1,1,0,0,0,.72.32,1.54,1.54,0,0,0,.76-.24,1.73,1.73,0,0,0,.59-.61m2-2.71h-1.29v6h-.69v-2.51a1.79,1.79,0,0,1-1.34.59,1.72,1.72,0,0,1-1.76-1.73v-2.31h-.54v-.5h5.62Z"/><rect class="cls-4" x="155.32" y="240.85" width="0.9" height="0.9"/><path class="cls-4" d="M163.94,243.33h-1.3v6H162v-2.22a3.81,3.81,0,0,1-1,.64,2.65,2.65,0,0,1-1,.23,1.61,1.61,0,0,1-1.07-.36,1.25,1.25,0,0,1-.43-1,1.51,1.51,0,0,1,.25-.82,2.29,2.29,0,0,1,.71-.71h-2v-.52h3.82V245h-.8a3,3,0,0,0-.92.72,1.25,1.25,0,0,0-.34.77.86.86,0,0,0,.24.67.84.84,0,0,0,.6.22,1.82,1.82,0,0,0,1.1-.4,3.7,3.7,0,0,0,.94-1.08v-2.61h-4.72v-.5h6.69Z"/><path class="cls-4" d="M171.2,243.33h-3.6v1.9a1.91,1.91,0,0,1,.6-.5,1.4,1.4,0,0,1,.67-.18,1.69,1.69,0,0,1,1.23.46,1.57,1.57,0,0,1,.48,1.18,2.24,2.24,0,0,1-.34,1.1,5,5,0,0,1-1,1.19l-.55-.4a4.46,4.46,0,0,0,.84-1,1.86,1.86,0,0,0,.31-1,1,1,0,0,0-.25-.74.86.86,0,0,0-.7-.28,1.15,1.15,0,0,0-.92.54,1.69,1.69,0,0,0-.41,1v2.7h-.67v-1.87a1.83,1.83,0,0,1-.53.37,1.52,1.52,0,0,1-.62.12,1.76,1.76,0,0,1-1.79-1.77,1.65,1.65,0,0,1,.51-1.21,1.75,1.75,0,0,1,1.25-.5,1.14,1.14,0,0,1,.28,0l.33.11v.56a1.33,1.33,0,0,0-.28-.13.77.77,0,0,0-.27,0,1,1,0,0,0-.8.33,1.18,1.18,0,0,0-.35.82,1.27,1.27,0,0,0,.3.88,1,1,0,0,0,.79.4,1,1,0,0,0,.72-.25,1.34,1.34,0,0,0,.46-.69v-3.12h-3.24v-.5h7.51Z"/><path class="cls-4" d="M175.06,245.55v-2.22h-2.32v2.22Zm1.93-2.22h-1.3v6h-.63v-3.18h-2.32V247a.18.18,0,0,1-.05.2.29.29,0,0,1-.22.1q-.25,0-.78-.6c-.35-.4-.53-.67-.53-.81a.3.3,0,0,1,.11-.23.58.58,0,0,1,.27-.14h.52v-2.22H171v-.5h6Z"/><path class="cls-4" d="M176.47,240.32a3.93,3.93,0,0,0-.44-.1l-.43,0a.78.78,0,0,0-.59.24.94.94,0,0,0-.23.67,2,2,0,0,0,.22.86,3.78,3.78,0,0,0,.6.87H175a5.52,5.52,0,0,1-.6-1.06,2.38,2.38,0,0,1-.21-.92,1.06,1.06,0,0,1,.39-.91,1.6,1.6,0,0,1,.93-.28,2.37,2.37,0,0,1,.43.05l.52.14Z"/><rect class="cls-5" x="52.41" y="241.35" width="0.58" height="9.48"/><rect class="cls-5" x="112.55" y="241.35" width="0.58" height="9.48"/><rect class="cls-5" x="147.47" y="241.35" width="0.58" height="9.48"/><rect class="cls-5" x="181.81" y="241.35" width="0.58" height="9.48"/><path class="cls-4" d="M52.05,225.46h1.21l1.1,3.59,1.53,5.11q.68-3.3,1.1-5.1l.85-3.74h1.23l-2.36,10.06H55.15l-1-3.18-1.51-5q-.45,1.76-1.43,5l-.94,3.18H48.76l-2.63-10.06H47.4l.94,3.73,1.24,5.06q.84-3.06,1.42-5.06Z"/><path class="cls-4" d="M67.68,233.89V235a4.53,4.53,0,0,1-2.15.47,3.62,3.62,0,0,1-3.82-3.84,4.07,4.07,0,0,1,.94-2.85,3.1,3.1,0,0,1,2.42-1.05,2.89,2.89,0,0,1,2.25.91,3.68,3.68,0,0,1,.84,2.58,4.94,4.94,0,0,1-.07.89H62.92a2.52,2.52,0,0,0,.85,1.71,2.85,2.85,0,0,0,1.88.6,3.51,3.51,0,0,0,2-.52m-.7-2.78v-.3a2.13,2.13,0,0,0-.51-1.5,1.8,1.8,0,0,0-1.4-.56,1.94,1.94,0,0,0-1.45.61,2.78,2.78,0,0,0-.7,1.75Z"/><path class="cls-4" d="M75.84,231.63a3,3,0,0,0,.74,2,2.66,2.66,0,0,0,2.08.81,2.85,2.85,0,0,0,1.61-.49v1.12a3.33,3.33,0,0,1-1.76.44,3.71,3.71,0,0,1-2.85-1.15,4,4,0,0,1-1-2.78,4,4,0,0,1,1-2.78,3.68,3.68,0,0,1,2.88-1.16,3.51,3.51,0,0,1,1.73.41v1.12a2.79,2.79,0,0,0-1.61-.46,2.7,2.7,0,0,0-2.06.83,2.91,2.91,0,0,0-.76,2"/><path class="cls-4" d="M83.72,229.39v-1.18a4.22,4.22,0,0,1,2.24-.52c1.9,0,2.85,1,2.85,2.9v4.79H87.65v-.9a2.27,2.27,0,0,1-2.12,1,2.34,2.34,0,0,1-1.71-.63,2.09,2.09,0,0,1-.65-1.58,2,2,0,0,1,.83-1.7,3.77,3.77,0,0,1,2.26-.6h1.37v-.39a2,2,0,0,0-.4-1.35,1.72,1.72,0,0,0-1.36-.46,3.7,3.7,0,0,0-2.15.64m3.91,2.5H86.32a2.26,2.26,0,0,0-1.43.37,1.14,1.14,0,0,0-.48.94,1.19,1.19,0,0,0,.37.92,1.55,1.55,0,0,0,1.09.35,1.77,1.77,0,0,0,1.29-.46,1.53,1.53,0,0,0,.47-1.15Z"/><path class="cls-4" d="M93.53,227.81v1.33a2.1,2.1,0,0,1,2.06-1.41,2.26,2.26,0,0,1,.42,0v1.17a2,2,0,0,0-.64-.1,1.56,1.56,0,0,0-1.32.73,2.86,2.86,0,0,0-.52,1.68v4.14H92.35l0-7.57Z"/><path class="cls-4" d="M104.22,233.89V235a4.53,4.53,0,0,1-2.15.47,3.62,3.62,0,0,1-3.82-3.84,4.07,4.07,0,0,1,.94-2.85,3.1,3.1,0,0,1,2.42-1.05,2.87,2.87,0,0,1,2.25.91,3.68,3.68,0,0,1,.84,2.58,4.94,4.94,0,0,1-.07.89H99.46a2.52,2.52,0,0,0,.85,1.71,2.85,2.85,0,0,0,1.88.6,3.49,3.49,0,0,0,2-.52m-.7-2.78v-.3a2.13,2.13,0,0,0-.51-1.5,1.79,1.79,0,0,0-1.4-.56,1.94,1.94,0,0,0-1.45.61,2.78,2.78,0,0,0-.7,1.75Z"/><path class="cls-4" d="M112.76,227.81v1.31a2.43,2.43,0,0,1,2.39-1.41,2.36,2.36,0,0,1,1.77.67,2.48,2.48,0,0,1,.65,1.79v5.21h-1.18v-4.9a1.77,1.77,0,0,0-.42-1.27,1.47,1.47,0,0,0-1.11-.44,2,2,0,0,0-1.48.65,2.57,2.57,0,0,0-.62,1.82v4.14H111.6v-7.57Z"/><path class="cls-4" d="M121.29,229.39v-1.18a4.25,4.25,0,0,1,2.24-.52c1.9,0,2.85,1,2.85,2.9v4.79h-1.16v-.9a2.27,2.27,0,0,1-2.12,1,2.34,2.34,0,0,1-1.71-.63,2.13,2.13,0,0,1-.65-1.58,2,2,0,0,1,.83-1.7,3.77,3.77,0,0,1,2.26-.6h1.37v-.39a2,2,0,0,0-.4-1.35,1.72,1.72,0,0,0-1.36-.46,3.73,3.73,0,0,0-2.15.64m3.91,2.5h-1.31a2.26,2.26,0,0,0-1.43.37,1.14,1.14,0,0,0-.48.94,1.19,1.19,0,0,0,.37.92,1.55,1.55,0,0,0,1.09.35,1.77,1.77,0,0,0,1.29-.46,1.53,1.53,0,0,0,.47-1.15Z"/><path class="cls-4" d="M131.57,228.77v4.43c0,.81.37,1.21,1.13,1.21a1.64,1.64,0,0,0,1-.34v1.12a2.27,2.27,0,0,1-1.1.27,2,2,0,0,1-2.24-2.29v-4.4h-1.21v-1h1.21v-1.88h1.18v1.88h2.09v1Z"/><path class="cls-4" d="M141.62,227.81h1.17v7.57h-1.17v-1.31a2.33,2.33,0,0,1-2.38,1.4,2.36,2.36,0,0,1-1.77-.66,2.48,2.48,0,0,1-.65-1.79v-5.21H138v4.91a1.74,1.74,0,0,0,.42,1.26,1.5,1.5,0,0,0,1.13.43,1.89,1.89,0,0,0,1.51-.66,2.64,2.64,0,0,0,.56-1.77Z"/><path class="cls-4" d="M147.6,227.81v1.33a2.1,2.1,0,0,1,2.06-1.41,2.26,2.26,0,0,1,.42,0v1.17a2,2,0,0,0-.64-.1,1.54,1.54,0,0,0-1.31.73,2.8,2.8,0,0,0-.53,1.68v4.14h-1.18l0-7.57Z"/><path class="cls-4" d="M152.93,229.39v-1.18a4.25,4.25,0,0,1,2.24-.52c1.91,0,2.86,1,2.86,2.9v4.79h-1.17v-.9a2.26,2.26,0,0,1-2.12,1,2.34,2.34,0,0,1-1.71-.63,2.13,2.13,0,0,1-.65-1.58,2,2,0,0,1,.83-1.7,3.79,3.79,0,0,1,2.26-.6h1.38v-.39a2,2,0,0,0-.41-1.35,1.72,1.72,0,0,0-1.36-.46,3.73,3.73,0,0,0-2.15.64m3.92,2.5h-1.32a2.3,2.3,0,0,0-1.43.37,1.14,1.14,0,0,0-.48.94,1.23,1.23,0,0,0,.37.92,1.57,1.57,0,0,0,1.09.35,1.77,1.77,0,0,0,1.29-.46,1.5,1.5,0,0,0,.48-1.15Z"/><rect class="cls-4" x="161.64" y="224.82" width="1.18" height="10.56"/><rect class="cls-4" x="166.58" y="224.82" width="1.18" height="10.56"/><path class="cls-4" d="M173.56,235.19l-3.07-7.38h1.33l1,2.49,1.33,3.44c.08-.26.48-1.41,1.19-3.44l.88-2.49h1.27l-2.73,7.38a5,5,0,0,1-1.38,2.16,2.86,2.86,0,0,1-1.83.63,2.15,2.15,0,0,1-.63-.08v-1.06a2,2,0,0,0,.51.06,2.22,2.22,0,0,0,2.14-1.71"/><path class="cls-4" d="M179.81,235.25a.92.92,0,1,1,.63.25.85.85,0,0,1-.63-.25"/><path class="cls-4" d="M183.75,235.25a.92.92,0,1,1,.63.25.85.85,0,0,1-.63-.25"/><path class="cls-4" d="M187.7,235.25a.89.89,0,0,1,0-1.26.83.83,0,0,1,.62-.25.88.88,0,1,1,0,1.76.83.83,0,0,1-.62-.25"/><path class="cls-6" d="M52.16,185.17a1.17,1.17,0,0,1,.81.32,1,1,0,0,1,.36.81v8.53a1.06,1.06,0,0,1-.09.42,1.14,1.14,0,0,1-.26.36,1.48,1.48,0,0,1-.39.26,1.07,1.07,0,0,1-.43.09,1,1,0,0,1-.74-.33,1.07,1.07,0,0,1-.34-.8v-2.78H47.39v2.78a1.09,1.09,0,0,1-.33.8,1.08,1.08,0,0,1-.8.33,1.18,1.18,0,0,1-.85-.32,1.16,1.16,0,0,1-.35-.81V186.3a1,1,0,0,1,.36-.83,1.27,1.27,0,0,1,.84-.3,1.08,1.08,0,0,1,.8.33,1.13,1.13,0,0,1,.33.8v3.45h3.69V186.3a1.1,1.1,0,0,1,.34-.8,1,1,0,0,1,.74-.33"/><path class="cls-6" d="M67.38,193.68a1.09,1.09,0,0,1,.8.33,1.16,1.16,0,0,1,0,1.62,1.09,1.09,0,0,1-.8.33H62.54a1.12,1.12,0,0,1-.79-.33,1.08,1.08,0,0,1-.34-.82V186.3a1.15,1.15,0,0,1,.32-.8,1.05,1.05,0,0,1,.81-.35h4.84a1.07,1.07,0,0,1,.8.34,1.1,1.1,0,0,1,.33.81,1.07,1.07,0,0,1-.33.81,1.09,1.09,0,0,1-.8.32H63.66v1.93h2.58a1.08,1.08,0,0,1,.8.34,1.14,1.14,0,0,1,.34.81,1.14,1.14,0,0,1-1.14,1.14H63.66v2Z"/><path class="cls-6" d="M79.34,193h2.79l-1.38-3.58Zm5.77,1.39a1.1,1.1,0,0,1,0,.87,1.14,1.14,0,0,1-.62.62,1.1,1.1,0,0,1-.87,0,1.07,1.07,0,0,1-.6-.65l-.16-.37H78.63l-.13.37a1.13,1.13,0,0,1-.6.65,1.12,1.12,0,0,1-.88,0,1.19,1.19,0,0,1-.63-.62,1.1,1.1,0,0,1,0-.87l3.32-8.51a1.28,1.28,0,0,1,.44-.52,1,1,0,0,1,.63-.22,1.07,1.07,0,0,1,.63.2,1.14,1.14,0,0,1,.43.54Z"/><path class="cls-6" d="M99.38,193.66a1.07,1.07,0,0,1,.78.33,1.09,1.09,0,0,1,.33.8,1.11,1.11,0,0,1-.33.82,1.07,1.07,0,0,1-.78.33H94.17a1.11,1.11,0,0,1-.82-.33,1.26,1.26,0,0,1-.35-.82v-8.51a1.07,1.07,0,0,1,.34-.8,1.13,1.13,0,0,1,.83-.33,1.1,1.1,0,0,1,.78.33,1.08,1.08,0,0,1,.35.8v7.38Z"/><path class="cls-6" d="M113.29,185.15a1.14,1.14,0,0,1,1.15,1.15,1.07,1.07,0,0,1-.33.81,1.12,1.12,0,0,1-.82.32h-1.9v7.38a1.1,1.1,0,0,1-.32.82,1.16,1.16,0,0,1-1.62,0,1.1,1.1,0,0,1-.32-.82v-7.38h-1.92a1.09,1.09,0,0,1-.8-.32,1.07,1.07,0,0,1-.33-.81,1.1,1.1,0,0,1,.33-.81,1.07,1.07,0,0,1,.8-.34Z"/><path class="cls-6" d="M129.24,185.17a1.16,1.16,0,0,1,.81.32,1,1,0,0,1,.36.81v8.53a1.06,1.06,0,0,1-.09.42,1.14,1.14,0,0,1-.26.36,1.6,1.6,0,0,1-.38.26,1.12,1.12,0,0,1-.44.09,1,1,0,0,1-.74-.33,1.07,1.07,0,0,1-.34-.8v-2.78h-3.69v2.78a1.09,1.09,0,0,1-.33.8,1.08,1.08,0,0,1-.8.33,1.18,1.18,0,0,1-.85-.32,1.16,1.16,0,0,1-.35-.81V186.3a1,1,0,0,1,.36-.83,1.31,1.31,0,0,1,.84-.3,1.08,1.08,0,0,1,.8.33,1.13,1.13,0,0,1,.33.8v3.45h3.69V186.3a1.1,1.1,0,0,1,.34-.8,1,1,0,0,1,.74-.33"/><path class="cls-6" d="M138.27,190.55a5.25,5.25,0,0,1,.42-2.1,5.35,5.35,0,0,1,1.15-1.72,5.36,5.36,0,0,1,3.82-1.58,5.05,5.05,0,0,1,2.35.55,5.58,5.58,0,0,1,1.83,1.46,1,1,0,0,1,.19.58,1,1,0,0,1-.36.79,1.19,1.19,0,0,1-.83.36.87.87,0,0,1-.67-.26,3.36,3.36,0,0,0-1.09-.89,3,3,0,0,0-1.42-.34,3.16,3.16,0,0,0-1.22.24,3.3,3.3,0,0,0-1.69,1.68,2.86,2.86,0,0,0-.25,1.19,3.27,3.27,0,0,0,.24,1.25,3.33,3.33,0,0,0,.68,1,3.21,3.21,0,0,0,1,.68,3.14,3.14,0,0,0,1.23.24,3,3,0,0,0,1.42-.34,3.36,3.36,0,0,0,1.09-.89,1,1,0,0,1,.69-.24,1.12,1.12,0,0,1,.83.34,1,1,0,0,1,.34.74,1,1,0,0,1-.19.63,5.45,5.45,0,0,1-1.83,1.46,5.05,5.05,0,0,1-2.35.55,5.37,5.37,0,0,1-5-3.3,5.24,5.24,0,0,1-.42-2.09"/><path class="cls-6" d="M158.54,193h2.79l-1.39-3.58Zm5.77,1.39a1.14,1.14,0,0,1,0,.87,1.13,1.13,0,0,1-.63.62,1.1,1.1,0,0,1-.87,0,1.07,1.07,0,0,1-.6-.65l-.15-.37h-4.21l-.14.37a1.07,1.07,0,0,1-.6.65,1.1,1.1,0,0,1-.87,0,1.19,1.19,0,0,1-.63-.62,1.1,1.1,0,0,1,0-.87l3.32-8.51a1.21,1.21,0,0,1,.44-.52,1,1,0,0,1,.62-.22,1.08,1.08,0,0,1,.64.2,1.21,1.21,0,0,1,.43.54Z"/><path class="cls-6" d="M176,187.43a1.51,1.51,0,0,0-.61.12,1.56,1.56,0,0,0-.5.33,1.43,1.43,0,0,0-.34.5,1.58,1.58,0,0,0-.12.61,1.37,1.37,0,0,0,.13.59,1.75,1.75,0,0,0,.34.51,1.57,1.57,0,0,0,.49.35,1.62,1.62,0,0,0,.61.12,1.55,1.55,0,0,0,1.1-.45,1.47,1.47,0,0,0,.46-1.12,1.42,1.42,0,0,0-.13-.61,1.56,1.56,0,0,0-.33-.5,1.67,1.67,0,0,0-.5-.33,1.57,1.57,0,0,0-.6-.12m2.81,6.58a1.14,1.14,0,0,1,.25.38,1.35,1.35,0,0,1,.07.44,1.29,1.29,0,0,1-.07.43,1.14,1.14,0,0,1-.25.38,1.16,1.16,0,0,1-1.6,0l-2.78-2.78v1.95a1.08,1.08,0,0,1-.34.82,1.1,1.1,0,0,1-.81.33,1.14,1.14,0,0,1-1.13-1.15V189a3.95,3.95,0,0,1,1.13-2.69,4.15,4.15,0,0,1,1.22-.84,3.69,3.69,0,0,1,2.94,0,4.29,4.29,0,0,1,1.22.82,4,4,0,0,1,.84,1.22,3.63,3.63,0,0,1,.31,1.5,3.71,3.71,0,0,1-.66,2.17,4,4,0,0,1-1.76,1.43Z"/><path class="cls-6" d="M193.65,193.68a1.08,1.08,0,0,1,.8.33,1.16,1.16,0,0,1,0,1.62,1.08,1.08,0,0,1-.8.33h-4.84a1.1,1.1,0,0,1-.78-.33,1.05,1.05,0,0,1-.35-.82V186.3a1.2,1.2,0,0,1,.32-.8,1.05,1.05,0,0,1,.81-.35h4.84a1.05,1.05,0,0,1,.8.34,1.1,1.1,0,0,1,.33.81,1.11,1.11,0,0,1-1.13,1.13h-3.72v1.93h2.59a1.06,1.06,0,0,1,.79.34,1.1,1.1,0,0,1,.34.81,1.07,1.07,0,0,1-.34.81,1.09,1.09,0,0,1-.79.33h-2.59v2Z"/><path class="cls-6" d="M5.74,166.61H19.16l-6.68-16.28Zm19,6a1.4,1.4,0,0,1-.78,1.84,1.26,1.26,0,0,1-1.09,0,1.56,1.56,0,0,1-.76-.76l-1.84-4.24H4.54l-1.8,4.24a1.48,1.48,0,0,1-.76.76,1.24,1.24,0,0,1-1.08,0,1.36,1.36,0,0,1-.78-.76,1.27,1.27,0,0,1,0-1.08l11-26.61a1.85,1.85,0,0,1,.51-.72,1.18,1.18,0,0,1,.83-.35,1.23,1.23,0,0,1,.83.33,2.08,2.08,0,0,1,.55.74Z"/><path class="cls-6" d="M31.8,163,19.62,147.28a1.45,1.45,0,0,1-.32-1,1.28,1.28,0,0,1,.51-.94,1.42,1.42,0,0,1,1-.33,1.31,1.31,0,0,1,.94.51L33.23,160.2,44.9,145.48a1.33,1.33,0,0,1,1-.51,1.39,1.39,0,0,1,1,.33,1.28,1.28,0,0,1,.51.94,1.45,1.45,0,0,1-.32,1L34.66,163v10.15a1.42,1.42,0,0,1-1.43,1.43,1.35,1.35,0,0,1-1-.42,1.37,1.37,0,0,1-.42-1Z"/><path class="cls-6" d="M59.94,174.59a10.41,10.41,0,0,1-4.25-.86,10.64,10.64,0,0,1-3.34-2.3,11.22,11.22,0,0,1-3.11-7.59V146.22a1.12,1.12,0,0,1,.43-.88,1.61,1.61,0,0,1,1-.37,1.56,1.56,0,0,1,1,.35,1.19,1.19,0,0,1,.41,1v17.89a7.16,7.16,0,0,0,.62,3,8.1,8.1,0,0,0,1.71,2.4,7.95,7.95,0,0,0,8.58,1.56,7.7,7.7,0,0,0,4.17-4.17,7.78,7.78,0,0,0,.6-3V146.22a1.14,1.14,0,0,1,.42-.88,1.48,1.48,0,0,1,1-.37,1.14,1.14,0,0,1,1,.4,1.45,1.45,0,0,1,.37.94v18a9.52,9.52,0,0,1-.88,4.08,10.46,10.46,0,0,1-2.35,3.25,11,11,0,0,1-7.47,3"/><path class="cls-6" d="M76,155.77a7.45,7.45,0,0,0,.62,3,7.87,7.87,0,0,0,1.68,2.49A8.13,8.13,0,0,0,80.78,163a7.79,7.79,0,0,0,6.09,0,8.51,8.51,0,0,0,2.52-1.69,7.6,7.6,0,0,0,1.7-2.49,7.79,7.79,0,0,0,0-6.09,8,8,0,0,0-1.7-2.51,8.39,8.39,0,0,0-2.52-1.71,7.79,7.79,0,0,0-6.09,0,8,8,0,0,0-2.49,1.71,8.31,8.31,0,0,0-1.68,2.51,7.5,7.5,0,0,0-.62,3.05m1.47,8.44a5.52,5.52,0,0,1-.6-.6,9.74,9.74,0,0,1-.87-1.25v10.75a1.35,1.35,0,0,1-.42,1,1.37,1.37,0,0,1-1,.42,1.42,1.42,0,0,1-1.43-1.43V155.77a10.5,10.5,0,0,1,.83-4.18,10.63,10.63,0,0,1,2.28-3.41,11,11,0,0,1,3.41-2.31,10.68,10.68,0,0,1,8.35,0,10.82,10.82,0,0,1,3.41,2.31,11,11,0,0,1,2.31,3.41,10.35,10.35,0,0,1,.85,4.18,10.49,10.49,0,0,1-.83,4.17,10.23,10.23,0,0,1-2.28,3.39,11,11,0,0,1-3.39,2.28,10.14,10.14,0,0,1-4.15.86l5.9,5.63a1.23,1.23,0,0,1,.46,1,1.63,1.63,0,0,1-.36,1,1.23,1.23,0,0,1-1,.48,1.4,1.4,0,0,1-1.06-.39Z"/><path class="cls-6" d="M108,173.52a2.08,2.08,0,0,1-.55.74,1.22,1.22,0,0,1-.83.33,1.18,1.18,0,0,1-.83-.35,1.85,1.85,0,0,1-.51-.72L94.67,147a1.3,1.3,0,0,1,0-1.09,1.42,1.42,0,0,1,.78-.76,1.27,1.27,0,0,1,1.08,0,1.54,1.54,0,0,1,.77.76l9.36,23.34L116,145.9a1.54,1.54,0,0,1,.77-.76,1.27,1.27,0,0,1,1.08,0,1.42,1.42,0,0,1,.78.76,1.3,1.3,0,0,1,0,1.09Z"/><path class="cls-6" d="M120.82,146.45a1.42,1.42,0,0,1,1.43-1.43,1.43,1.43,0,0,1,1.43,1.43v26.71a1.37,1.37,0,0,1-.42,1,1.35,1.35,0,0,1-1,.42,1.42,1.42,0,0,1-1.43-1.43Z"/><path class="cls-6" d="M143.65,152a3,3,0,0,0-.6-1.59,5.37,5.37,0,0,0-1.5-1.36,8.42,8.42,0,0,0-2.19-1,9.82,9.82,0,0,0-2.63-.34,10.3,10.3,0,0,0-2.7.34,8.13,8.13,0,0,0-2.19,1,5,5,0,0,0-1.47,1.43,3.1,3.1,0,0,0-.56,1.75,2.46,2.46,0,0,0,.69,1.69,6.51,6.51,0,0,0,1.73,1.31,12.38,12.38,0,0,0,2.24.92,13.14,13.14,0,0,0,2.26.51,14.59,14.59,0,0,1,4,1A12.19,12.19,0,0,1,144,159.6a8.37,8.37,0,0,1,2.17,2.69,7.34,7.34,0,0,1,.78,3.35,7.86,7.86,0,0,1-.8,3.48,8.79,8.79,0,0,1-2.24,2.84,11.82,11.82,0,0,1-11.44,1.93,10.76,10.76,0,0,1-3.32-1.91,9.12,9.12,0,0,1-2.24-2.84,7.58,7.58,0,0,1-.8-3.46,1.29,1.29,0,0,1,.39-.94,1.28,1.28,0,0,1,.94-.39,1.33,1.33,0,0,1,1.34,1.33,5.14,5.14,0,0,0,.6,2.43,6.39,6.39,0,0,0,1.64,2,8,8,0,0,0,2.44,1.31,9.32,9.32,0,0,0,3,.48,9.55,9.55,0,0,0,3.05-.48,8.66,8.66,0,0,0,2.51-1.31,6.13,6.13,0,0,0,1.68-2,4.45,4.45,0,0,0,.51-2.43,4.84,4.84,0,0,0-.74-2.23,7.25,7.25,0,0,0-1.66-1.85,9.28,9.28,0,0,0-2.33-1.34,13.22,13.22,0,0,0-2.74-.76,14.71,14.71,0,0,1-3.71-.73,12.13,12.13,0,0,1-3.12-1.55,8,8,0,0,1-2.14-2.21,5.1,5.1,0,0,1-.81-2.79,5.65,5.65,0,0,1,.76-2.84,7.65,7.65,0,0,1,2.1-2.31,10.61,10.61,0,0,1,3.12-1.56,12.77,12.77,0,0,1,7.61,0,10.67,10.67,0,0,1,3.11,1.56,7.65,7.65,0,0,1,2.1,2.31,5.65,5.65,0,0,1,.76,2.84,1.37,1.37,0,0,1-.42,1,1.35,1.35,0,0,1-1,.42,1.28,1.28,0,0,1-1-.44,1.9,1.9,0,0,1-.44-1.18"/><path class="cls-6" d="M149.28,146.45a1.34,1.34,0,0,1,.41-1,1.44,1.44,0,0,1,2,0,1.35,1.35,0,0,1,.42,1V159.5h15.68V146.45a1.42,1.42,0,0,1,1.43-1.43,1.37,1.37,0,0,1,1,.42,1.35,1.35,0,0,1,.42,1v26.71a1.43,1.43,0,0,1-1.43,1.43,1.42,1.42,0,0,1-1.43-1.43v-10.8H152.14v10.8a1.37,1.37,0,0,1-.42,1,1.44,1.44,0,0,1-2,0,1.36,1.36,0,0,1-.41-1Z"/><path class="cls-6" d="M216.31,166.61h13.42l-6.68-16.28Zm19.05,6a1.27,1.27,0,0,1,0,1.08,1.36,1.36,0,0,1-.78.76,1.26,1.26,0,0,1-1.09,0,1.56,1.56,0,0,1-.76-.76l-1.84-4.24H215.11l-1.79,4.24a1.54,1.54,0,0,1-.77.76,1.24,1.24,0,0,1-1.08,0,1.36,1.36,0,0,1-.78-.76,1.27,1.27,0,0,1,0-1.08l11-26.61a1.85,1.85,0,0,1,.51-.72,1.18,1.18,0,0,1,.83-.35,1.23,1.23,0,0,1,.83.33,2.08,2.08,0,0,1,.55.74Z"/><path class="cls-6" d="M185.33,173.52a2.11,2.11,0,0,1-.56.74,1.2,1.2,0,0,1-.83.33,1.21,1.21,0,0,1-.83-.35,1.92,1.92,0,0,1-.5-.72L172,147a1.38,1.38,0,0,1,0-1.09,1.47,1.47,0,0,1,.79-.76,1.28,1.28,0,0,1,1.08,0,1.52,1.52,0,0,1,.76.76l9.36,23.34,9.32-23.34a1.52,1.52,0,0,1,.76-.76,1.3,1.3,0,0,1,1.09,0,1.45,1.45,0,0,1,.78.76,1.38,1.38,0,0,1,0,1.09Z"/><path class="cls-6" d="M204.14,173.52a2.08,2.08,0,0,0,.55.74,1.23,1.23,0,0,0,.83.33,1.18,1.18,0,0,0,.83-.35,1.85,1.85,0,0,0,.51-.72L217.52,147a1.38,1.38,0,0,0,0-1.09,1.47,1.47,0,0,0-.79-.76,1.27,1.27,0,0,0-1.08,0,1.48,1.48,0,0,0-.76.76l-9.37,23.34-9.31-23.34a1.56,1.56,0,0,0-.76-.76,1.3,1.3,0,0,0-1.09,0,1.42,1.42,0,0,0-.78.76,1.3,1.3,0,0,0,0,1.09Z"/></g></g></svg>